<svg width="148" height="140" viewBox="0 0 148 140" fill="none" xmlns="http://www.w3.org/2000/svg">
<path d="M8.268 13.84H15.504C18.024 13.84 19.848 14.524 20.976 15.892C22.128 17.26 22.704 19.264 22.704 21.904C22.704 24.28 22.092 26.128 20.868 27.448C19.644 28.768 17.868 29.428 15.54 29.428H12.336V43H8.268V13.84ZM14.208 26.512C15.408 26.512 16.332 26.38 16.98 26.116C17.652 25.852 18.132 25.396 18.42 24.748C18.708 24.1 18.852 23.164 18.852 21.94C18.852 20.452 18.744 19.36 18.528 18.664C18.312 17.968 17.88 17.476 17.232 17.188C16.608 16.9 15.612 16.756 14.244 16.756H12.336V26.512H14.208ZM25.7809 13.84H29.7769V43H25.7809V13.84ZM33.5946 40.084L42.1626 16.756H34.1346V13.84H46.4826V15.604L37.4466 40.084H46.4826V43H33.5946V40.084ZM48.6063 40.084L57.1743 16.756H49.1463V13.84H61.4943V15.604L52.4583 40.084H61.4943V43H48.6063V40.084ZM69.126 13.84H73.05L79.278 43H75.426L74.094 35.656H68.154L66.75 43H62.934L69.126 13.84ZM73.554 32.74L71.106 19.6L68.694 32.74H73.554ZM89.3113 18.664C89.3113 16.72 89.5873 15.244 90.1393 14.236C90.6913 13.228 91.6033 12.7 92.8753 12.652L93.5593 14.056C92.8393 14.128 92.3353 14.476 92.0473 15.1C91.7593 15.724 91.6153 16.732 91.6153 18.124H93.5233V22.156H89.3113V18.664ZM97.6276 22.192H101.48V24.244C103.136 22.684 104.828 21.904 106.556 21.904C107.684 21.904 108.488 22.312 108.968 23.128C109.448 23.944 109.688 24.952 109.688 26.152V43H105.836V27.268C105.836 26.476 105.716 25.888 105.476 25.504C105.236 25.12 104.804 24.928 104.18 24.928C103.412 24.928 102.512 25.36 101.48 26.224V43H97.6276V22.192Z" fill="#FFC300"/>
<path d="M18.304 109.704C12.8 109.704 8.896 108.232 6.592 105.288C4.288 102.301 3.136 98.0133 3.136 92.424V73.864C3.136 68.1467 4.26667 63.8373 6.528 60.936C8.832 57.992 12.7573 56.52 18.304 56.52C23.5947 56.52 27.328 57.8213 29.504 60.424C31.7227 62.984 32.832 66.6747 32.832 71.496V75.848H22.592V71.048C22.592 69.512 22.5067 68.2747 22.336 67.336C22.208 66.3973 21.824 65.6293 21.184 65.032C20.5867 64.392 19.648 64.072 18.368 64.072C16.448 64.072 15.2107 64.6907 14.656 65.928C14.1013 67.1653 13.824 68.9787 13.824 71.368V94.92C13.824 97.352 14.144 99.1653 14.784 100.36C15.424 101.555 16.6187 102.152 18.368 102.152C20.16 102.152 21.312 101.555 21.824 100.36C22.336 99.1227 22.592 97.3093 22.592 94.92V89.864H32.832V94.152C32.832 99.1013 31.744 102.941 29.568 105.672C27.392 108.36 23.6373 109.704 18.304 109.704ZM39.407 57.16H49.967V78.408H59.119V57.16H69.679V109H59.119V86.024H49.967V109H39.407V57.16ZM77.7195 57.16H88.2155V109H77.7195V57.16ZM96.0915 57.16H106.588V101.832H118.812V109H96.0915V57.16ZM123.779 57.16H134.275V101.832H146.499V109H123.779V57.16Z" fill="white"/>
<path d="M20.292 125.528C20.328 125.516 20.388 125.51 20.472 125.51C20.652 125.51 20.79 125.57 20.886 125.69C20.982 125.81 21.03 125.972 21.03 126.176C21.03 126.548 20.958 126.842 20.814 127.058C20.67 127.262 20.454 127.412 20.166 127.508C19.614 127.688 19.026 127.778 18.402 127.778C17.874 127.778 17.376 127.706 16.908 127.562C16.56 128.126 16.176 128.708 15.756 129.308C15.276 129.992 14.862 130.46 14.514 130.712C14.178 130.964 13.794 131.09 13.362 131.09C12.882 131.09 12.516 130.904 12.264 130.532C12.024 130.16 11.874 129.548 11.814 128.696L11.724 127.382C11.352 128.39 11.016 129.158 10.716 129.686C10.428 130.214 10.134 130.58 9.834 130.784C9.546 130.988 9.204 131.09 8.808 131.09C8.316 131.09 7.926 130.898 7.638 130.514C7.362 130.13 7.188 129.524 7.116 128.696C6.972 127.016 6.9 125.546 6.9 124.286V123.656C6.912 123.26 7.02 122.984 7.224 122.828C7.428 122.672 7.734 122.594 8.142 122.594C8.454 122.594 8.682 122.666 8.826 122.81C8.982 122.942 9.06 123.17 9.06 123.494C9.06 124.874 9.144 126.668 9.312 128.876C10.128 127.16 10.878 125.372 11.562 123.512C11.694 123.152 11.85 122.912 12.03 122.792C12.222 122.66 12.45 122.594 12.714 122.594C13.038 122.594 13.26 122.66 13.38 122.792C13.512 122.924 13.578 123.158 13.578 123.494C13.578 124.874 13.662 126.668 13.83 128.876C14.55 127.808 15.09 126.956 15.45 126.32C15.27 125.972 15.18 125.558 15.18 125.078C15.18 124.67 15.27 124.274 15.45 123.89C15.63 123.506 15.876 123.194 16.188 122.954C16.5 122.714 16.854 122.594 17.25 122.594C17.598 122.594 17.88 122.72 18.096 122.972C18.312 123.212 18.42 123.566 18.42 124.034C18.42 124.574 18.276 125.192 17.988 125.888C18.444 125.864 19.05 125.774 19.806 125.618L20.292 125.528ZM25.9115 127.526C26.0675 127.526 26.1875 127.598 26.2715 127.742C26.3675 127.886 26.4155 128.084 26.4155 128.336C26.4155 128.768 26.3135 129.14 26.1095 129.452C25.7735 129.968 25.3295 130.37 24.7775 130.658C24.2375 130.946 23.5895 131.09 22.8335 131.09C21.6815 131.09 20.7875 130.748 20.1515 130.064C19.5155 129.368 19.1975 128.432 19.1975 127.256C19.1975 126.428 19.3715 125.66 19.7195 124.952C20.0675 124.232 20.5475 123.662 21.1595 123.242C21.7835 122.822 22.4855 122.612 23.2655 122.612C23.9615 122.612 24.5195 122.822 24.9395 123.242C25.3595 123.65 25.5695 124.208 25.5695 124.916C25.5695 125.744 25.2695 126.458 24.6695 127.058C24.0815 127.646 23.0735 128.114 21.6455 128.462C21.9335 129.014 22.4195 129.29 23.1035 129.29C23.5955 129.29 23.9975 129.176 24.3095 128.948C24.6335 128.72 25.0055 128.336 25.4255 127.796C25.5695 127.616 25.7315 127.526 25.9115 127.526ZM22.9595 124.376C22.5155 124.376 22.1375 124.634 21.8255 125.15C21.5255 125.666 21.3755 126.29 21.3755 127.022V127.058C22.0835 126.89 22.6415 126.638 23.0495 126.302C23.4575 125.966 23.6615 125.576 23.6615 125.132C23.6615 124.904 23.5955 124.724 23.4635 124.592C23.3435 124.448 23.1755 124.376 22.9595 124.376ZM41.8556 126.986C42.0116 126.986 42.1316 127.058 42.2156 127.202C42.3116 127.346 42.3596 127.544 42.3596 127.796C42.3596 128.276 42.2456 128.648 42.0176 128.912C41.5256 129.512 40.9856 130.028 40.3976 130.46C39.8096 130.88 39.2276 131.09 38.6516 131.09C37.7396 131.09 37.0436 130.556 36.5636 129.488C36.0596 130.124 35.6156 130.55 35.2316 130.766C34.8596 130.982 34.4216 131.09 33.9176 131.09C33.1856 131.09 32.5796 130.82 32.0996 130.28C31.6316 129.728 31.3976 129.014 31.3976 128.138C31.3976 127.178 31.6016 126.29 32.0096 125.474C32.4176 124.646 32.9756 123.974 33.6836 123.458C34.4036 122.93 35.2076 122.618 36.0956 122.522C36.3236 120.194 36.7556 118.208 37.3916 116.564C38.0396 114.908 38.8856 114.08 39.9296 114.08C40.4456 114.08 40.8716 114.314 41.2076 114.782C41.5556 115.25 41.7296 115.958 41.7296 116.906C41.7296 118.25 41.3996 119.822 40.7396 121.622C40.0796 123.422 39.1976 125.27 38.0936 127.166C38.1416 127.862 38.2436 128.36 38.3996 128.66C38.5676 128.96 38.7776 129.11 39.0296 129.11C39.3536 129.11 39.6836 128.966 40.0196 128.678C40.3556 128.39 40.8056 127.91 41.3696 127.238C41.5136 127.07 41.6756 126.986 41.8556 126.986ZM39.7316 115.844C39.5036 115.844 39.2756 116.252 39.0476 117.068C38.8196 117.872 38.6216 118.928 38.4536 120.236C38.2976 121.544 38.1836 122.912 38.1116 124.34C39.4556 121.412 40.1276 119.06 40.1276 117.284C40.1276 116.828 40.0856 116.474 40.0016 116.222C39.9296 115.97 39.8396 115.844 39.7316 115.844ZM34.5476 129.272C34.7756 129.272 35.0036 129.182 35.2316 129.002C35.4596 128.81 35.7476 128.462 36.0956 127.958C35.9756 127.31 35.9156 126.584 35.9156 125.78C35.9156 125.492 35.9276 125.024 35.9516 124.376C35.2916 124.58 34.7396 125.024 34.2956 125.708C33.8636 126.38 33.6476 127.13 33.6476 127.958C33.6476 128.834 33.9476 129.272 34.5476 129.272ZM43.9373 131.09C43.2293 131.09 42.6233 130.916 42.1193 130.568C41.6273 130.208 41.2553 129.74 41.0033 129.164C40.7513 128.588 40.6252 127.97 40.6252 127.31C40.6252 126.398 40.7933 125.588 41.1293 124.88C41.4773 124.16 41.9453 123.602 42.5333 123.206C43.1213 122.798 43.7813 122.594 44.5133 122.594C45.2213 122.594 45.8273 122.774 46.3313 123.134C46.8353 123.482 47.2133 123.944 47.4653 124.52C47.7173 125.096 47.8433 125.714 47.8433 126.374C47.8433 127.286 47.6693 128.102 47.3213 128.822C46.9733 129.53 46.4993 130.088 45.8993 130.496C45.3113 130.892 44.6573 131.09 43.9373 131.09ZM44.1353 129.146C44.5433 129.146 44.8853 128.924 45.1613 128.48C45.4493 128.036 45.5933 127.388 45.5933 126.536C45.5933 125.876 45.4733 125.378 45.2333 125.042C44.9933 124.706 44.7053 124.538 44.3693 124.538C43.9373 124.538 43.5773 124.76 43.2893 125.204C43.0133 125.636 42.8753 126.284 42.8753 127.148C42.8753 127.832 42.9953 128.336 43.2353 128.66C43.4753 128.984 43.7753 129.146 44.1353 129.146ZM63.4272 126.986C63.5832 126.986 63.7032 127.058 63.7872 127.202C63.8832 127.346 63.9312 127.544 63.9312 127.796C63.9312 128.276 63.8172 128.648 63.5892 128.912C63.0732 129.548 62.5152 130.07 61.9152 130.478C61.3272 130.886 60.6552 131.09 59.8992 131.09C59.2632 131.09 58.7472 130.862 58.3512 130.406C57.6672 130.85 56.9532 131.078 56.2092 131.09C56.0532 133.406 55.6992 135.338 55.1472 136.886C54.5952 138.446 53.7852 139.226 52.7172 139.226C52.0692 139.226 51.5892 138.992 51.2772 138.524C50.9652 138.056 50.8092 137.408 50.8092 136.58C50.8092 135.404 51.0792 134.03 51.6192 132.458C52.1592 130.898 52.9932 129.176 54.1212 127.292C54.1212 125.54 54.1092 124.322 54.0852 123.638C54.0732 123.29 54.2112 123.014 54.4992 122.81C54.7872 122.606 55.1472 122.504 55.5792 122.504C55.8312 122.504 56.0112 122.558 56.1192 122.666C56.2392 122.762 56.3052 122.96 56.3172 123.26C56.3172 123.56 56.3232 123.782 56.3352 123.926C56.7192 123.446 57.0972 123.104 57.4692 122.9C57.8412 122.684 58.2372 122.576 58.6572 122.576C59.3292 122.576 59.8752 122.846 60.2952 123.386C60.7272 123.926 60.9432 124.634 60.9432 125.51C60.9432 126.146 60.8412 126.764 60.6372 127.364C60.4332 127.964 60.1512 128.51 59.7912 129.002C60.0432 129.074 60.2532 129.11 60.4212 129.11C60.8172 129.11 61.1952 128.966 61.5552 128.678C61.9152 128.39 62.3772 127.91 62.9412 127.238C63.0852 127.07 63.2472 126.986 63.4272 126.986ZM56.2992 129.362C56.7312 129.266 57.1272 129.032 57.4872 128.66C57.8592 128.276 58.1532 127.808 58.3692 127.256C58.5852 126.692 58.6932 126.104 58.6932 125.492C58.6932 125.132 58.6212 124.862 58.4772 124.682C58.3332 124.49 58.1412 124.394 57.9012 124.394C57.4692 124.394 56.9472 124.85 56.3352 125.762C56.3232 126.29 56.3172 127.064 56.3172 128.084C56.3172 128.636 56.3112 129.062 56.2992 129.362ZM52.8612 137.462C53.1852 137.462 53.4552 136.754 53.6712 135.338C53.8872 133.934 54.0252 132.182 54.0852 130.082C53.5692 131.282 53.1612 132.428 52.8612 133.52C52.5612 134.612 52.4112 135.53 52.4112 136.274C52.4112 136.658 52.4592 136.952 52.5552 137.156C52.6392 137.36 52.7412 137.462 52.8612 137.462ZM64.8392 121.424C64.3352 121.424 63.9572 121.31 63.7052 121.082C63.4532 120.842 63.3272 120.512 63.3272 120.092C63.3272 119.672 63.4892 119.324 63.8132 119.048C64.1492 118.76 64.5632 118.616 65.0552 118.616C65.4992 118.616 65.8592 118.724 66.1352 118.94C66.4112 119.156 66.5492 119.462 66.5492 119.858C66.5492 120.338 66.3932 120.722 66.0812 121.01C65.7692 121.286 65.3552 121.424 64.8392 121.424ZM64.6952 131.09C63.9152 131.09 63.3452 130.814 62.9852 130.262C62.6372 129.71 62.4632 128.978 62.4632 128.066C62.4632 127.526 62.5292 126.836 62.6612 125.996C62.8052 125.144 62.9852 124.352 63.2012 123.62C63.3092 123.236 63.4532 122.972 63.6332 122.828C63.8132 122.684 64.1012 122.612 64.4972 122.612C65.1092 122.612 65.4152 122.816 65.4152 123.224C65.4152 123.524 65.3012 124.22 65.0732 125.312C64.7852 126.632 64.6412 127.526 64.6412 127.994C64.6412 128.354 64.6892 128.63 64.7852 128.822C64.8812 129.014 65.0432 129.11 65.2712 129.11C65.4872 129.11 65.7572 128.96 66.0812 128.66C66.4052 128.36 66.8372 127.886 67.3772 127.238C67.5212 127.07 67.6832 126.986 67.8632 126.986C68.0192 126.986 68.1392 127.058 68.2232 127.202C68.3192 127.346 68.3672 127.544 68.3672 127.796C68.3672 128.276 68.2532 128.648 68.0252 128.912C66.8372 130.364 65.7272 131.09 64.6952 131.09ZM75.5413 126.986C75.6973 126.986 75.8173 127.058 75.9013 127.202C75.9973 127.346 76.0453 127.544 76.0453 127.796C76.0453 128.24 75.9313 128.612 75.7033 128.912C75.1393 129.644 74.4373 130.22 73.5973 130.64C72.7693 131.06 71.8333 131.27 70.7893 131.27C69.9733 131.27 69.2653 131.15 68.6653 130.91C68.0653 130.658 67.6033 130.322 67.2793 129.902C66.9673 129.47 66.8113 128.99 66.8113 128.462C66.8113 127.67 67.1293 126.968 67.7653 126.356C68.4013 125.744 69.3133 125.156 70.5013 124.592L67.5493 124.664C67.2853 124.676 67.0813 124.586 66.9373 124.394C66.8053 124.19 66.7393 123.95 66.7393 123.674C66.7393 123.386 66.8053 123.134 66.9373 122.918C67.0813 122.69 67.2733 122.576 67.5133 122.576C68.0653 122.576 68.8033 122.618 69.7273 122.702C69.9193 122.714 70.2673 122.738 70.7713 122.774C71.2873 122.81 71.7193 122.828 72.0673 122.828C72.1873 122.828 72.4153 122.78 72.7513 122.684C72.8113 122.672 72.9253 122.642 73.0933 122.594C73.2733 122.546 73.4233 122.522 73.5433 122.522C73.7353 122.522 73.8913 122.606 74.0113 122.774C74.1433 122.942 74.2093 123.2 74.2093 123.548C74.2093 123.932 74.1193 124.232 73.9393 124.448C73.7593 124.664 73.4773 124.856 73.0933 125.024C72.0013 125.492 71.0953 125.996 70.3753 126.536C69.6553 127.064 69.2953 127.592 69.2953 128.12C69.2953 128.456 69.4513 128.732 69.7633 128.948C70.0753 129.164 70.5373 129.272 71.1493 129.272C71.8213 129.272 72.4993 129.104 73.1833 128.768C73.8793 128.432 74.5033 127.922 75.0553 127.238C75.1993 127.07 75.3613 126.986 75.5413 126.986ZM83.5569 126.986C83.7129 126.986 83.8329 127.058 83.9169 127.202C84.0129 127.346 84.0609 127.544 84.0609 127.796C84.0609 128.24 83.9469 128.612 83.7189 128.912C83.1549 129.644 82.4529 130.22 81.6129 130.64C80.7849 131.06 79.8489 131.27 78.8049 131.27C77.9889 131.27 77.2809 131.15 76.6809 130.91C76.0809 130.658 75.6189 130.322 75.2949 129.902C74.9829 129.47 74.8269 128.99 74.8269 128.462C74.8269 127.67 75.1449 126.968 75.7809 126.356C76.4169 125.744 77.3289 125.156 78.5169 124.592L75.5649 124.664C75.3009 124.676 75.0969 124.586 74.9529 124.394C74.8209 124.19 74.7549 123.95 74.7549 123.674C74.7549 123.386 74.8209 123.134 74.9529 122.918C75.0969 122.69 75.2889 122.576 75.5289 122.576C76.0809 122.576 76.8189 122.618 77.7429 122.702C77.9349 122.714 78.2829 122.738 78.7869 122.774C79.3029 122.81 79.7349 122.828 80.0829 122.828C80.2029 122.828 80.4309 122.78 80.7669 122.684C80.8269 122.672 80.9409 122.642 81.1089 122.594C81.2889 122.546 81.4389 122.522 81.5589 122.522C81.7509 122.522 81.9069 122.606 82.0269 122.774C82.1589 122.942 82.2249 123.2 82.2249 123.548C82.2249 123.932 82.1349 124.232 81.9549 124.448C81.7749 124.664 81.4929 124.856 81.1089 125.024C80.0169 125.492 79.1109 125.996 78.3909 126.536C77.6709 127.064 77.3109 127.592 77.3109 128.12C77.3109 128.456 77.4669 128.732 77.7789 128.948C78.0909 129.164 78.5529 129.272 79.1649 129.272C79.8369 129.272 80.5149 129.104 81.1989 128.768C81.8949 128.432 82.5189 127.922 83.0709 127.238C83.2149 127.07 83.3769 126.986 83.5569 126.986ZM84.4848 131.09C83.8008 131.09 83.2428 130.82 82.8108 130.28C82.3908 129.74 82.1808 129.032 82.1808 128.156C82.1808 127.196 82.4028 126.29 82.8468 125.438C83.2908 124.574 83.8788 123.884 84.6108 123.368C85.3548 122.84 86.1408 122.576 86.9688 122.576C87.2328 122.576 87.4068 122.63 87.4908 122.738C87.5868 122.834 87.6648 123.014 87.7248 123.278C87.9528 123.23 88.2048 123.206 88.4808 123.206C88.7688 123.206 88.9908 123.278 89.1468 123.422C89.3028 123.566 89.3808 123.77 89.3808 124.034C89.3808 124.31 89.3208 124.79 89.2008 125.474C89.0688 126.206 88.9668 126.908 88.8948 127.58C88.8228 128.24 88.7868 128.984 88.7868 129.812C88.7868 130.268 88.6908 130.598 88.4988 130.802C88.3188 130.994 88.0188 131.09 87.5988 131.09C87.1908 131.09 86.8848 130.994 86.6808 130.802C86.4888 130.598 86.3928 130.274 86.3928 129.83L86.4108 129.542C86.0388 130.574 85.3968 131.09 84.4848 131.09ZM85.1868 129.272C85.5228 129.272 85.8288 129.038 86.1048 128.57C86.3808 128.102 86.6268 127.268 86.8428 126.068L87.1848 124.25C86.6928 124.262 86.2368 124.454 85.8168 124.826C85.3968 125.186 85.0608 125.666 84.8088 126.266C84.5568 126.866 84.4308 127.502 84.4308 128.174C84.4308 128.534 84.4968 128.81 84.6288 129.002C84.7728 129.182 84.9588 129.272 85.1868 129.272ZM96.7006 131.09C96.2446 131.09 95.9206 130.85 95.7286 130.37C95.5486 129.89 95.4586 129.122 95.4586 128.066C95.4586 126.506 95.6806 125.024 96.1246 123.62C96.2326 123.272 96.4066 123.02 96.6466 122.864C96.8986 122.696 97.2466 122.612 97.6906 122.612C97.9306 122.612 98.0986 122.642 98.1946 122.702C98.2906 122.762 98.3386 122.876 98.3386 123.044C98.3386 123.236 98.2486 123.668 98.0686 124.34C97.9486 124.82 97.8526 125.24 97.7806 125.6C97.7086 125.96 97.6486 126.404 97.6006 126.932C97.9966 125.9 98.4406 125.06 98.9326 124.412C99.4246 123.764 99.9046 123.302 100.373 123.026C100.853 122.75 101.291 122.612 101.687 122.612C102.467 122.612 102.857 123.002 102.857 123.782C102.857 123.938 102.803 124.316 102.695 124.916C102.599 125.396 102.551 125.696 102.551 125.816C102.551 126.236 102.701 126.446 103.001 126.446C103.337 126.446 103.769 126.182 104.297 125.654C104.453 125.498 104.615 125.42 104.783 125.42C104.939 125.42 105.059 125.492 105.143 125.636C105.239 125.768 105.287 125.948 105.287 126.176C105.287 126.62 105.167 126.968 104.927 127.22C104.591 127.568 104.195 127.868 103.739 128.12C103.295 128.36 102.821 128.48 102.317 128.48C101.681 128.48 101.195 128.318 100.859 127.994C100.535 127.67 100.373 127.232 100.373 126.68C100.373 126.5 100.391 126.32 100.427 126.14C100.451 125.9 100.463 125.738 100.463 125.654C100.463 125.462 100.397 125.366 100.265 125.366C100.085 125.366 99.8446 125.57 99.5446 125.978C99.2566 126.374 98.9686 126.902 98.6806 127.562C98.3926 128.222 98.1586 128.918 97.9786 129.65C97.8466 130.214 97.6906 130.598 97.5106 130.802C97.3426 130.994 97.0726 131.09 96.7006 131.09ZM105.972 121.424C105.468 121.424 105.09 121.31 104.838 121.082C104.586 120.842 104.46 120.512 104.46 120.092C104.46 119.672 104.622 119.324 104.946 119.048C105.282 118.76 105.696 118.616 106.188 118.616C106.632 118.616 106.992 118.724 107.268 118.94C107.544 119.156 107.682 119.462 107.682 119.858C107.682 120.338 107.526 120.722 107.214 121.01C106.902 121.286 106.488 121.424 105.972 121.424ZM105.828 131.09C105.048 131.09 104.478 130.814 104.118 130.262C103.77 129.71 103.596 128.978 103.596 128.066C103.596 127.526 103.662 126.836 103.794 125.996C103.938 125.144 104.118 124.352 104.334 123.62C104.442 123.236 104.586 122.972 104.766 122.828C104.946 122.684 105.234 122.612 105.63 122.612C106.242 122.612 106.548 122.816 106.548 123.224C106.548 123.524 106.434 124.22 106.206 125.312C105.918 126.632 105.774 127.526 105.774 127.994C105.774 128.354 105.822 128.63 105.918 128.822C106.014 129.014 106.176 129.11 106.404 129.11C106.62 129.11 106.89 128.96 107.214 128.66C107.538 128.36 107.97 127.886 108.51 127.238C108.654 127.07 108.816 126.986 108.996 126.986C109.152 126.986 109.272 127.058 109.356 127.202C109.452 127.346 109.5 127.544 109.5 127.796C109.5 128.276 109.386 128.648 109.158 128.912C107.97 130.364 106.86 131.09 105.828 131.09ZM117.26 127.022C117.416 127.022 117.536 127.1 117.62 127.256C117.716 127.4 117.764 127.586 117.764 127.814C117.764 128.09 117.722 128.306 117.638 128.462C117.554 128.618 117.422 128.756 117.242 128.876C116.21 129.572 115.454 130.088 114.974 130.424L113.822 131.198C113.366 133.682 112.766 135.632 112.022 137.048C111.29 138.476 110.354 139.19 109.214 139.19C108.602 139.19 108.104 138.998 107.72 138.614C107.336 138.242 107.144 137.75 107.144 137.138C107.144 136.286 107.48 135.368 108.152 134.384C108.824 133.412 110.084 132.212 111.932 130.784L112.04 130.082C111.836 130.406 111.566 130.658 111.23 130.838C110.906 131.006 110.582 131.09 110.258 131.09C109.514 131.09 108.92 130.82 108.476 130.28C108.032 129.74 107.81 129.032 107.81 128.156C107.81 127.196 108.032 126.29 108.476 125.438C108.92 124.574 109.508 123.884 110.24 123.368C110.984 122.84 111.77 122.576 112.598 122.576C112.862 122.576 113.036 122.63 113.12 122.738C113.216 122.834 113.294 123.014 113.354 123.278C113.582 123.23 113.846 123.206 114.146 123.206C114.446 123.206 114.656 123.254 114.776 123.35C114.908 123.434 114.974 123.608 114.974 123.872C114.974 124.016 114.968 124.13 114.956 124.214C114.908 124.586 114.758 125.528 114.506 127.04C114.458 127.328 114.404 127.646 114.344 127.994C114.296 128.33 114.242 128.69 114.182 129.074C115.106 128.354 115.994 127.718 116.846 127.166C117.002 127.07 117.14 127.022 117.26 127.022ZM110.906 129.272C111.182 129.272 111.446 129.104 111.698 128.768C111.95 128.432 112.13 127.952 112.238 127.328L112.814 124.25C112.322 124.262 111.866 124.454 111.446 124.826C111.026 125.186 110.69 125.666 110.438 126.266C110.186 126.866 110.06 127.502 110.06 128.174C110.06 128.546 110.132 128.822 110.276 129.002C110.432 129.182 110.642 129.272 110.906 129.272ZM109.412 137.444C109.712 137.444 110.048 137.084 110.42 136.364C110.804 135.644 111.17 134.498 111.518 132.926C110.594 133.718 109.928 134.432 109.52 135.068C109.112 135.704 108.908 136.262 108.908 136.742C108.908 136.946 108.944 137.114 109.016 137.246C109.1 137.378 109.232 137.444 109.412 137.444ZM126.647 126.986C126.803 126.986 126.923 127.058 127.007 127.202C127.103 127.346 127.151 127.544 127.151 127.796C127.151 128.276 127.037 128.648 126.809 128.912C126.257 129.548 125.687 130.07 125.099 130.478C124.523 130.886 123.863 131.09 123.119 131.09C122.507 131.09 122.045 130.916 121.733 130.568C121.421 130.208 121.265 129.692 121.265 129.02C121.265 128.684 121.349 128.084 121.517 127.22C121.673 126.464 121.751 125.942 121.751 125.654C121.751 125.462 121.685 125.366 121.553 125.366C121.397 125.366 121.175 125.57 120.887 125.978C120.599 126.374 120.311 126.902 120.023 127.562C119.735 128.222 119.501 128.918 119.321 129.65C119.093 130.61 118.529 131.09 117.629 131.09C117.269 131.09 117.029 130.964 116.909 130.712C116.801 130.448 116.747 129.98 116.747 129.308C116.747 128.924 116.753 128.618 116.765 128.39L116.783 126.95C116.783 125.102 116.969 123.176 117.341 121.172C117.725 119.168 118.283 117.488 119.015 116.132C119.759 114.764 120.647 114.08 121.679 114.08C122.231 114.08 122.675 114.32 123.011 114.8C123.359 115.268 123.533 115.88 123.533 116.636C123.533 117.848 123.179 119.108 122.471 120.416C121.763 121.712 120.611 123.23 119.015 124.97C118.979 125.594 118.961 126.236 118.961 126.896C119.357 125.876 119.795 125.048 120.275 124.412C120.767 123.764 121.247 123.302 121.715 123.026C122.195 122.75 122.633 122.612 123.029 122.612C123.809 122.612 124.199 123.002 124.199 123.782C124.199 124.25 124.067 125.096 123.803 126.32C123.575 127.364 123.461 128.054 123.461 128.39C123.461 128.87 123.635 129.11 123.983 129.11C124.223 129.11 124.505 128.966 124.829 128.678C125.165 128.378 125.609 127.898 126.161 127.238C126.305 127.07 126.467 126.986 126.647 126.986ZM121.301 115.862C121.085 115.862 120.845 116.174 120.581 116.798C120.317 117.41 120.059 118.244 119.807 119.3C119.567 120.344 119.369 121.484 119.213 122.72C119.957 121.844 120.569 120.89 121.049 119.858C121.541 118.826 121.787 117.89 121.787 117.05C121.787 116.666 121.745 116.372 121.661 116.168C121.577 115.964 121.457 115.862 121.301 115.862ZM128.662 124.322C128.638 124.922 128.626 125.39 128.626 125.726C128.626 126.59 128.668 127.268 128.752 127.76C128.848 128.24 128.998 128.588 129.202 128.804C129.418 129.008 129.712 129.11 130.084 129.11C130.276 129.11 130.504 129.05 130.768 128.93C131.032 128.81 131.272 128.654 131.488 128.462C131.62 128.342 131.752 128.282 131.884 128.282C132.028 128.282 132.142 128.366 132.226 128.534C132.322 128.69 132.37 128.882 132.37 129.11C132.37 129.338 132.322 129.56 132.226 129.776C132.142 129.992 132.01 130.172 131.83 130.316C131.206 130.832 130.498 131.09 129.706 131.09C128.566 131.09 127.732 130.616 127.204 129.668C126.676 128.708 126.412 127.46 126.412 125.924C126.412 125.396 126.43 124.862 126.466 124.322H125.764C125.404 124.322 125.158 124.256 125.026 124.124C124.906 123.992 124.846 123.782 124.846 123.494C124.846 122.822 125.116 122.486 125.656 122.486H126.682C126.886 121.166 127.198 119.96 127.618 118.868C128.038 117.776 128.542 116.906 129.13 116.258C129.73 115.61 130.372 115.286 131.056 115.286C131.56 115.286 131.956 115.508 132.244 115.952C132.532 116.396 132.676 116.954 132.676 117.626C132.676 119.486 131.896 121.106 130.336 122.486H132.352C132.544 122.486 132.682 122.528 132.766 122.612C132.85 122.696 132.892 122.852 132.892 123.08C132.892 123.908 132.214 124.322 130.858 124.322H128.662ZM130.57 117.014C130.39 117.014 130.186 117.242 129.958 117.698C129.742 118.142 129.532 118.766 129.328 119.57C129.136 120.362 128.974 121.244 128.842 122.216C129.55 121.604 130.078 120.92 130.426 120.164C130.786 119.396 130.966 118.7 130.966 118.076C130.966 117.368 130.834 117.014 130.57 117.014ZM135.495 126.788C135.255 126.788 135.057 126.734 134.901 126.626C134.745 126.518 134.667 126.35 134.667 126.122L134.685 125.978C134.889 124.634 135.165 123.104 135.513 121.388C135.861 119.672 136.185 118.19 136.485 116.942C136.677 116.174 137.199 115.79 138.051 115.79C138.819 115.79 139.203 116.036 139.203 116.528C139.203 116.636 139.185 116.756 139.149 116.888C138.837 118.16 138.423 119.702 137.907 121.514C137.391 123.314 136.899 124.88 136.431 126.212C136.299 126.596 135.987 126.788 135.495 126.788ZM134.811 131.09C134.283 131.09 133.881 130.946 133.605 130.658C133.341 130.37 133.209 129.992 133.209 129.524C133.209 128.984 133.359 128.552 133.659 128.228C133.971 127.904 134.403 127.742 134.955 127.742C135.483 127.742 135.879 127.874 136.143 128.138C136.419 128.39 136.557 128.768 136.557 129.272C136.557 129.824 136.401 130.268 136.089 130.604C135.777 130.928 135.351 131.09 134.811 131.09ZM141.612 126.788C141.372 126.788 141.174 126.734 141.018 126.626C140.862 126.518 140.784 126.35 140.784 126.122L140.802 125.978C141.006 124.634 141.282 123.104 141.63 121.388C141.978 119.672 142.302 118.19 142.602 116.942C142.794 116.174 143.316 115.79 144.168 115.79C144.936 115.79 145.32 116.036 145.32 116.528C145.32 116.636 145.302 116.756 145.266 116.888C144.954 118.16 144.54 119.702 144.024 121.514C143.508 123.314 143.016 124.88 142.548 126.212C142.416 126.596 142.104 126.788 141.612 126.788ZM140.928 131.09C140.4 131.09 139.998 130.946 139.722 130.658C139.458 130.37 139.326 129.992 139.326 129.524C139.326 128.984 139.476 128.552 139.776 128.228C140.088 127.904 140.52 127.742 141.072 127.742C141.6 127.742 141.996 127.874 142.26 128.138C142.536 128.39 142.674 128.768 142.674 129.272C142.674 129.824 142.518 130.268 142.206 130.604C141.894 130.928 141.468 131.09 140.928 131.09Z" fill="#FFC300"/>
</svg>
